<?xml version="1.0"?>
<svg xmlns="http://www.w3.org/2000/svg" width="74" height="53" viewBox="0 0 74 53" fill="none">
<path d="M16.1303 34.1487C16.1075 34.2392 16.1178 34.3361 16.1611 34.4394C16.2044 34.5427 16.2641 34.5885 16.3402 34.5768C16.3491 34.6945 16.3682 34.9092 16.3977 35.2207C16.4271 35.5322 16.4551 35.8646 16.4818 36.2177C16.6901 36.8591 16.8048 37.7117 16.8259 38.7757C16.857 39.8152 16.8296 40.6668 16.7435 41.3304C16.6574 41.3665 16.5958 41.4126 16.5586 41.4686C16.5142 41.5075 16.53 41.5211 16.6061 41.5095C16.6422 41.5955 16.6161 41.7988 16.5278 42.1192C16.4906 42.1753 16.4328 42.3513 16.3545 42.6473C16.2863 42.9188 16.2285 43.0948 16.1813 43.1754C16.2146 43.3031 16.2063 43.428 16.1563 43.5502C16.0991 43.6551 16.0361 43.7221 15.9673 43.7509C15.9673 43.7509 15.9537 43.7668 15.9264 43.7984C15.9092 43.8056 15.9115 43.8351 15.9331 43.8867C15.811 44.4642 15.4475 45.3352 14.8429 46.4997C14.2626 47.6742 13.7082 48.5241 13.1795 49.0494C13.0579 49.2421 12.8983 49.4406 12.7006 49.645C12.5201 49.8421 12.3941 49.9759 12.3224 50.0465C12.2453 50.2003 11.643 50.5743 10.5158 51.1685C10.3509 51.2579 10.1687 51.3545 9.9694 51.4584C9.77005 51.5622 9.57431 51.6747 9.38218 51.7957C9.28611 51.8563 9.11758 51.9371 8.87658 52.0381C8.32573 52.2692 7.55581 52.4605 6.56683 52.6121C6.31417 52.6371 6.11815 52.6282 5.97877 52.5855C5.83938 52.5427 5.66474 52.4642 5.45483 52.3498C5.26936 52.2454 5.12415 52.1646 5.01919 52.1074C4.65824 51.8742 4.39113 51.551 4.21787 51.1379C4.09514 50.8452 4.05432 50.579 4.0954 50.3391C4.14648 50.0747 4.29891 49.859 4.55268 49.6918L4.63014 49.6594C4.699 49.6305 4.85115 49.6072 5.08659 49.5894C4.87723 49.0902 4.74617 48.6087 4.6934 48.1451C4.55233 47.3743 4.39903 45.6573 4.23347 42.9941L4.17514 41.9862C4.17291 41.6431 4.11403 41.02 3.9985 40.1171C3.92074 39.4008 3.85297 38.66 3.7952 37.8948C3.75464 37.1224 3.74991 36.6284 3.781 36.413C3.77489 36.2536 3.74712 36.0426 3.69769 35.7799C3.58771 34.7937 3.52827 33.928 3.51937 33.1828L3.34276 32.2549L3.00458 32.2449C2.87131 32.3615 2.74443 32.4451 2.62393 32.4957C2.53786 32.5317 2.43235 32.5456 2.30741 32.5373C2.17414 32.6539 1.92286 32.6581 1.55359 32.5498C1.20152 32.4343 0.972181 32.2977 0.865559 32.14C0.809473 32.1028 0.751165 32.0362 0.690634 31.9401C0.647318 31.8368 0.618441 31.768 0.604002 31.7336C0.570681 31.6058 0.723105 31.3901 1.06127 31.0863C1.39222 30.7654 1.82868 30.4305 2.37064 30.0818C2.91261 29.733 3.45041 29.4468 3.98404 29.223C4.22504 29.1219 4.4094 29.0547 4.53712 29.0214C4.98191 28.8753 5.55886 28.7548 6.26798 28.6598C6.96987 28.5476 7.61874 28.4779 8.21457 28.4507C8.86927 28.419 9.62337 28.5278 10.4769 28.7771C11.3476 29.0192 12.1769 29.3799 12.9649 29.8591C13.7701 30.3311 14.4104 30.8925 14.8858 31.5433C15.0312 31.7454 15.2128 32.0336 15.4305 32.4078C15.6482 32.7821 15.822 33.1242 15.952 33.434C16.1036 33.7955 16.163 34.0337 16.1303 34.1487ZM14.1612 36.7659C14.0129 35.9779 13.8089 35.2741 13.549 34.6544C12.8054 32.8813 11.5692 31.7197 9.84057 31.1694C9.34912 31.0111 8.61446 30.9245 7.63657 30.9096C6.67591 30.8874 6.14254 30.9188 6.03648 31.0037C5.95763 31.0571 5.93599 31.6329 5.97156 32.7313C6.02434 33.8224 6.09462 35.0277 6.18239 36.3471L6.3849 40.0879C6.43156 40.3922 6.46238 40.6829 6.47738 40.96C6.49238 41.2371 6.51377 41.4811 6.54154 41.6921C6.58487 42.4229 6.62459 42.8313 6.66069 42.9174C6.48635 43.9014 6.66492 45.3649 7.19639 47.3079C7.20528 47.4256 7.27665 47.8612 7.4105 48.6148C7.52824 49.2334 7.55768 49.5449 7.49882 49.5493L7.57046 49.7926C7.93806 49.8003 8.26097 49.7256 8.53917 49.5685C8.63524 49.5079 8.76573 49.433 8.93065 49.3436C9.11279 49.2469 9.24689 49.1806 9.33296 49.1445C9.83494 48.8935 10.1956 48.6916 10.4149 48.5389C10.6587 48.3962 10.8378 48.2199 10.9522 48.0099C11.493 47.1759 11.92 46.4806 12.2332 45.9242C12.5564 45.3434 12.7479 44.9796 12.8079 44.833C12.8062 44.7325 12.9437 44.5534 13.2202 44.2958L13.6292 43.2437C13.8646 42.5985 14.0245 42.2075 14.1089 42.0709C14.0756 41.9432 14.0509 41.8119 14.0348 41.6769C14.0286 41.5176 14.0111 41.4035 13.9823 41.3346C14.095 41.0242 14.181 40.3606 14.2404 39.3438C14.2926 38.3099 14.2662 37.4506 14.1612 36.7659ZM21.8218 43.1478C21.6152 43.2344 21.4372 43.2685 21.2878 43.2502C21.1385 43.2319 20.9122 43.175 20.609 43.0795C20.1131 42.8624 19.6911 42.6042 19.3429 42.3049C18.9875 41.9884 18.7742 41.673 18.7031 41.3587C18.7043 41.2165 18.6709 41.0888 18.6032 40.9755C18.5526 40.855 18.5202 40.7776 18.5057 40.7431C18.408 40.7031 18.3555 40.6745 18.3483 40.6573C18.3339 40.6229 18.3402 40.5899 18.3674 40.5582C18.3874 40.5093 18.3988 40.4641 18.4016 40.4224C18.5049 40.3791 18.4996 40.27 18.3858 40.0951C18.2936 39.9718 18.2275 39.6453 18.1875 39.1155C18.1475 38.5858 18.165 38.0724 18.2399 37.5754C18.2993 37.1862 18.4123 36.6833 18.5789 36.0669C18.7627 35.4433 18.9504 34.9497 19.1419 34.5859C19.6922 33.4848 20.2791 32.7123 20.9027 32.2686C21.2109 32.0382 21.5285 31.8544 21.8556 31.7172C22.3548 31.5078 22.7999 31.4831 23.1908 31.643C23.6345 31.6391 24.0038 31.7474 24.2986 31.9678C24.5935 32.1883 24.8678 32.5287 25.1216 32.989C25.1822 33.0851 25.263 33.2536 25.364 33.4946C25.8983 34.7684 25.9722 36.2961 25.5857 38.0775C25.428 38.8116 25.2234 39.4338 24.9719 39.9441C24.7204 40.4545 24.3827 41.0009 23.9591 41.5834C23.7358 41.9199 23.4665 42.1948 23.1511 42.4081C22.8357 42.6213 22.3926 42.8679 21.8218 43.1478ZM23.1344 38.893C23.3387 38.4632 23.4484 38.0731 23.4634 37.7227C23.4883 37.3479 23.4797 36.724 23.4375 35.8511C23.4758 35.6528 23.3975 35.3213 23.2026 34.8565C23.0293 34.4434 22.8716 34.2363 22.7294 34.2352C22.6145 34.2024 22.4968 34.2113 22.3763 34.2618C22.2213 34.3268 22.0223 34.552 21.7791 34.9374C21.3931 35.7065 21.1127 36.4617 20.9378 37.203C20.7729 37.9199 20.7646 38.6723 20.9129 39.4603C20.9246 39.5364 20.9593 39.6433 21.017 39.781C21.2625 40.3663 21.5918 40.5723 22.0049 40.399C22.4009 40.233 22.7773 39.731 23.1344 38.893ZM36.3794 37.2854C36.0823 37.3492 35.6822 37.264 35.1791 37.0297C34.6688 36.7781 34.3129 36.5327 34.1113 36.2934C34.0968 36.259 34.0652 36.2317 34.0163 36.2118C33.9602 36.1746 33.92 36.151 33.8955 36.141C33.805 36.1182 33.6515 35.8486 33.4349 35.3322C33.2616 34.919 33.0984 34.4815 32.9451 34.0195C32.809 33.5502 32.7177 33.1635 32.671 32.8592L32.5618 31.2957L32.4902 30.1113L32.5593 28.3213L31.4073 28.4704C31.2796 28.5037 31.151 28.4868 31.0216 28.4196C30.9095 28.3452 30.8353 28.2649 30.7992 28.1789C30.7415 28.0412 30.7273 27.8143 30.7567 27.4984C30.8034 27.1752 30.8697 26.9955 30.9558 26.9594C31.0147 26.955 31.156 26.9058 31.3798 26.812C31.8962 26.5954 32.2727 26.4072 32.5092 26.2472C32.6525 26.1062 32.7152 25.9179 32.6975 25.6825C32.7041 25.457 32.7252 25.266 32.7608 25.1094C32.7891 24.9356 32.8138 24.7532 32.8349 24.5622C32.8432 24.4372 32.8557 24.2498 32.8723 23.9999C32.899 23.7256 32.9406 23.4146 32.9973 23.067C33.01 23.0009 33.037 22.8479 33.078 22.608C33.1119 22.3509 33.186 22.1174 33.3004 21.9075C33.3676 21.7781 33.4764 21.6515 33.6269 21.5277C33.7702 21.3866 33.9279 21.28 34.1 21.2078C34.4099 21.0779 34.6956 21.0593 34.9571 21.152C35.2131 21.328 35.3664 21.4763 35.4169 21.5968C35.4747 21.7345 35.4816 21.9441 35.4378 22.2257C35.4211 22.4755 35.3645 22.8232 35.2679 23.2685C35.1913 23.665 35.141 23.9796 35.1171 24.2123C35.0389 24.5082 35.025 24.7165 35.0755 24.837C35.1261 24.9575 35.2632 24.9708 35.487 24.8769C35.728 24.7759 36.1109 24.5546 36.6356 24.213C36.7145 24.1597 36.8314 24.1006 36.9863 24.0356C37.3994 23.8624 37.7426 23.8601 38.0158 24.0289C38.289 24.1977 38.5014 24.4629 38.653 24.8244C38.7541 25.0654 38.7294 25.2478 38.5789 25.3716C38.4456 25.4882 38.095 25.6657 37.5269 25.9039C37.0122 26.221 36.4621 26.5023 35.8769 26.7477C35.7736 26.791 35.6567 26.8502 35.5262 26.9252C35.4057 26.9757 35.2838 27.0471 35.1605 27.1392C35.0373 27.2314 34.9556 27.3264 34.9157 27.4241C34.8929 27.5146 34.8796 27.6518 34.8757 27.8356C34.8457 27.9089 34.8082 28.1574 34.7633 28.5811C34.7316 29.1814 34.703 29.5476 34.6775 29.6797C34.7786 31.1757 35.001 32.6714 35.3448 34.1668C35.3709 34.2773 35.4165 34.41 35.4814 34.565C35.5753 34.7888 35.7127 34.9234 35.8937 34.9689C36.0848 34.99 36.3955 34.9103 36.8258 34.7299C37.3078 34.5277 37.7387 34.2762 38.1185 33.9752C38.5411 33.5348 38.849 33.183 39.0422 32.9198C39.1611 32.7688 39.2663 32.6335 39.3579 32.5141C39.4595 32.3703 39.5289 32.2704 39.5661 32.2143C39.5773 32.0477 39.6964 32.018 39.9235 32.1251C40.1678 32.2251 40.3799 32.3689 40.5599 32.5566C40.6898 32.8664 40.7487 33.1757 40.7365 33.4845C40.7171 33.776 40.5241 34.1606 40.1576 34.6381C39.7511 35.2134 39.2878 35.7013 38.7675 36.1017C38.2472 36.5021 37.7288 36.8105 37.2124 37.0271C36.9197 37.1499 36.6421 37.2359 36.3794 37.2854ZM50.5913 30.8089C50.2848 31.1399 49.9938 31.3631 49.7184 31.4787C49.2191 31.688 48.7316 31.6597 48.2557 31.3937C47.7798 31.1278 47.383 30.6161 47.0654 29.8586C46.7477 29.1012 46.5511 28.2222 46.4756 27.2215C46.4767 27.0794 46.4842 26.9042 46.498 26.6959C46.5119 26.4877 46.493 26.3944 46.4414 26.4161C46.3553 26.4522 46.2473 26.629 46.1174 26.9467C45.5916 28.0578 45.2179 29.1457 44.9963 30.2102C44.7848 31.2503 44.7729 31.9941 44.9606 32.4417C45.04 32.631 45.0239 32.8098 44.9123 32.9781C44.8179 33.1391 44.676 33.2594 44.4866 33.3388C44.3662 33.3893 44.2434 33.4104 44.1185 33.4021C43.6459 33.3371 43.2061 33.1572 42.7991 32.8624C42.3848 32.5503 42.0808 32.0908 41.887 31.4839C41.4577 30.2672 41.1414 29.1752 40.9381 28.2079C40.7449 27.2161 40.5563 25.7771 40.3725 23.8907C40.368 23.8319 40.3474 23.3243 40.3108 22.3681C40.2091 20.6295 40.1638 19.6768 40.1749 19.5103C40.2449 19.3392 40.2618 18.8969 40.2257 18.1834C40.1996 17.4454 40.1576 17.0075 40.0999 16.8698C40.0421 16.7321 40.0224 16.5886 40.0407 16.4392C40.069 16.2654 40.0846 16.1576 40.0874 16.116C40.0962 15.6062 40.1695 15.3225 40.3072 15.2647C40.4622 15.1997 40.7465 15.2019 41.1602 15.2713C41.5839 15.3163 41.8576 15.414 41.9815 15.5645C42.2347 15.7822 42.4119 16.0115 42.5129 16.2525C42.6212 16.5107 42.6823 16.8495 42.6962 17.2687C42.7029 17.6708 42.6726 18.2502 42.6055 19.0071C42.525 20.2149 42.5403 21.5545 42.6514 23.0261C42.6758 23.6636 42.7547 24.5515 42.888 25.6898C43.0213 26.8282 43.1277 27.4921 43.2071 27.6814C43.2576 27.8019 43.3431 27.8369 43.4636 27.7864C43.6013 27.7286 43.7044 27.564 43.7726 27.2924C43.781 27.1675 43.8387 26.9914 43.9459 26.7643C44.0531 26.5372 44.133 26.3417 44.1858 26.1779C44.3596 25.5787 44.585 24.9579 44.8621 24.3154C45.1391 23.6729 45.3982 23.3011 45.6392 23.2001C46.2589 22.9402 46.8861 23.1326 47.5208 23.7773C47.6186 23.8172 47.6991 23.8644 47.7624 23.9189C47.8257 23.9733 47.8818 24.0105 47.9306 24.0305C48.0528 24.0804 48.1861 24.2776 48.3305 24.6218C48.5759 25.2071 48.7342 25.9707 48.8053 26.9124C48.9336 27.7493 49.0555 28.3054 49.171 28.5808C49.2649 28.8046 49.3721 28.8912 49.4926 28.8407C49.5298 28.7846 49.6078 28.6811 49.7266 28.53C49.8454 28.379 49.9829 28.1999 50.1389 27.9927C50.4238 27.6101 50.6781 27.3719 50.9019 27.2781C51.074 27.2059 51.2248 27.2034 51.3542 27.2705C51.4763 27.3205 51.5663 27.4144 51.624 27.5521C51.6746 27.6726 51.6901 27.8786 51.6707 28.1701C51.6685 28.4544 51.6746 28.6138 51.689 28.6482L51.7432 28.7773C51.7721 28.8462 51.6335 29.1674 51.3276 29.7411C51.0216 30.3147 50.7762 30.6707 50.5913 30.8089ZM55.9672 28.6151C55.8095 28.7217 55.6618 28.8039 55.5241 28.8616C55.3003 28.9555 55.0865 29.0249 54.8827 29.0699C54.6717 29.0976 54.5518 29.0771 54.5229 29.0082C54.5013 28.9566 54.4782 28.9258 54.4538 28.9158C54.4293 28.9058 54.3913 28.9116 54.3397 28.9333C54.2664 28.9033 54.1098 28.8678 53.8699 28.8267C53.64 28.7612 53.4539 28.7278 53.3118 28.7267C52.9825 28.5207 52.7457 28.2456 52.6013 27.9013C52.4641 27.5742 52.3472 27.0059 52.2505 26.1963C51.9862 25.5177 51.9132 24.6678 52.0314 23.6466C52.1597 22.601 52.4115 21.5845 52.7868 20.5972C53.1549 19.5926 53.5409 18.8235 53.9445 18.2899C54.0945 17.9234 54.4018 17.6426 54.8666 17.4477C55.2281 17.2961 55.579 17.24 55.9194 17.2794C56.201 17.3233 56.5991 17.5004 57.1139 17.8108C57.6459 18.114 58.0738 18.4102 58.3975 18.6995C58.4825 18.8056 58.5941 18.9511 58.7324 19.136C58.8879 19.3137 59.027 19.5489 59.1497 19.8415L59.4013 20.5862C59.4907 21.3786 59.6545 22.0588 59.8928 22.6269C59.9594 22.8823 60.0596 23.073 60.1935 23.1991C60.3201 23.3079 60.4436 23.3371 60.5641 23.2865C60.6502 23.2504 60.7341 23.1849 60.8157 23.09C60.8973 22.995 61.007 22.9186 61.1447 22.8609C61.3685 22.767 61.5867 22.7565 61.7994 22.8292C62.0121 22.902 62.1617 23.0416 62.2484 23.2482C62.3206 23.4203 62.3461 23.6019 62.325 23.7929C62.3145 24.2022 62.1518 24.6348 61.8369 25.0907C61.5393 25.5394 61.2097 25.8395 60.8482 25.9911C60.5556 26.1139 60.2066 26.078 59.8012 25.8837C59.4131 25.6821 59.0368 25.3642 58.6726 24.93L58.2686 24.4011L57.6964 25.643L57.3515 26.486C57.1916 26.8769 57.1053 27.1054 57.0925 27.1715C57.0642 27.3453 56.9634 27.5394 56.7902 27.7538C56.6341 27.9609 56.3598 28.248 55.9672 28.6151ZM55.6248 25.8438C55.8625 25.5417 56.0304 25.2183 56.1287 24.8734C56.2442 24.5214 56.368 24.0444 56.5002 23.4424C56.5257 23.3103 56.5513 23.1781 56.5768 23.0459C56.5951 22.8966 56.6307 22.74 56.6834 22.5761C56.81 22.0575 56.883 21.6524 56.9024 21.3609C56.9391 21.0621 56.9341 20.7606 56.8874 20.4563C56.7247 20.2614 56.5348 20.0981 56.3177 19.9665C56.1105 19.8105 55.9517 19.7455 55.8412 19.7716C55.3592 19.9738 54.9433 20.8162 54.5935 22.2988C54.558 22.4554 54.5105 22.7284 54.4511 23.1176C54.4089 23.4997 54.3837 23.7532 54.3753 23.8781C54.3398 24.0347 54.342 24.3779 54.382 24.9076C54.432 25.413 54.4859 25.7345 54.5436 25.8722C54.7025 26.2509 54.8938 26.3933 55.1176 26.2995C55.2897 26.2273 55.4588 26.0754 55.6248 25.8438ZM66.855 26.2957C66.1764 26.56 65.6259 26.5986 65.2033 26.4115C64.8051 26.2344 64.4905 25.8704 64.2595 25.3196C64.2018 25.1818 64.1251 24.9508 64.0296 24.6265C63.9974 24.3567 63.948 24.094 63.8813 23.8386C63.8086 23.4238 63.8008 23.1639 63.858 23.0589C63.868 23.0345 63.8707 22.9929 63.8663 22.934C63.8619 22.8751 63.8266 22.8393 63.7605 22.8265C63.6667 22.6028 63.6142 22.2604 63.6031 21.7995C63.5869 21.6646 63.5794 21.526 63.5806 21.3839C63.5817 21.2417 63.5836 21.1498 63.5864 21.1082C63.5375 21.0882 63.4986 21.0438 63.4698 20.9749C63.4337 20.8888 63.4406 20.7847 63.4906 20.6625C63.5578 20.5332 63.5941 20.4268 63.5997 20.3435C63.6224 20.253 63.5936 20.1842 63.5131 20.137C63.4425 20.0653 63.4436 19.6094 63.5163 18.7693C63.5524 18.2278 63.5682 17.9277 63.5638 17.8688C63.5249 17.8244 63.5119 17.4554 63.5246 16.7618C63.5546 16.0611 63.5857 15.5319 63.6179 15.1742C63.7367 15.0232 63.6512 14.9882 63.3613 15.0693C63.0715 15.1504 62.7322 15.2825 62.3435 15.4658C61.7682 15.6868 61.3184 15.8451 60.9941 15.9406C60.6626 16.0189 60.3805 16.0461 60.1478 16.0223C59.9768 15.9523 59.8516 15.8227 59.7721 15.6333C59.6783 15.4095 59.6691 15.1705 59.7446 14.9161C59.8374 14.6546 60.0006 14.4647 60.2344 14.3464C60.6747 14.1415 61.338 13.7924 62.2243 13.2993L63.4979 12.6437L63.3912 12.1723C63.4123 11.9813 63.4356 11.8197 63.4612 11.6875C63.4967 11.5309 63.505 11.406 63.4862 11.3127C63.4845 11.2122 63.4562 11.0722 63.4012 10.8929C63.4239 10.8024 63.4378 10.5941 63.4428 10.2682C63.465 9.93499 63.4392 9.63208 63.3653 9.35943C63.4175 8.95294 63.4597 8.5709 63.4919 8.21328C63.5341 7.83124 63.5616 7.60717 63.5743 7.54109C63.6893 6.94636 63.9361 6.56958 64.3148 6.41076C64.5214 6.32412 64.7654 6.30274 65.047 6.3466C65.3357 6.40767 65.5656 6.47319 65.7367 6.54316C65.9077 6.61312 66.0365 6.75139 66.1232 6.95796C66.1881 7.11288 66.2045 7.36915 66.1723 7.72677C66.1612 7.89336 66.1734 8.2121 66.209 8.68299C66.1535 8.88845 66.1146 9.15778 66.0924 9.49096C66.063 9.80692 66.073 10.0962 66.1224 10.3589C66.1241 10.4594 66.123 10.6016 66.1191 10.7854C66.108 10.9519 66.0924 11.0597 66.0725 11.1085C66.0625 11.133 66.0316 11.156 65.98 11.1777C66.0405 11.2737 66.1038 11.3282 66.1699 11.3409C66.236 11.3537 66.3293 11.3348 66.4498 11.2843C66.5359 11.2482 66.6355 11.1963 66.7488 11.1285C66.8793 11.0535 67.0392 10.9764 67.2286 10.8969C67.3935 10.8075 67.529 10.7204 67.6351 10.6354C67.7583 10.5432 67.8802 10.4718 68.0007 10.4213C68.0696 10.3924 68.1837 10.3749 68.3431 10.3688C68.4724 10.436 68.5985 10.6159 68.7212 10.9086C68.8151 11.1323 68.8709 11.362 68.8887 11.5974C68.8992 11.8156 68.8637 11.9722 68.7821 12.0672C68.7032 12.1205 68.5355 12.2516 68.279 12.4604C68.0224 12.6692 67.7256 12.8544 67.3886 13.016L66.0742 13.719L66.0034 14.781C65.9696 15.0381 65.9493 15.2794 65.9426 15.5049C65.936 15.7303 65.9227 15.8675 65.9027 15.9163C65.9388 16.0024 65.9421 16.2034 65.9127 16.5194C65.8833 16.8354 65.8666 17.0852 65.8627 17.269C65.8777 17.5461 65.8755 17.8305 65.8561 18.122C65.8294 18.3963 65.8133 18.5751 65.8078 18.6584C65.7561 18.6801 65.7289 18.7117 65.7262 18.7534C65.7334 18.7706 65.7478 18.805 65.7695 18.8567L65.9078 19.0416C65.9438 19.1276 65.9369 19.2318 65.8869 19.3539C65.8325 19.4172 65.7889 19.5064 65.7562 19.6213C65.7406 19.729 65.7315 19.8037 65.7287 19.8454C65.7776 19.8654 65.8128 19.9012 65.8345 19.9528C65.885 20.0733 65.8897 20.2535 65.8487 20.4934C65.9714 20.786 66.035 21.2755 66.0394 21.9619C66.1866 22.2645 66.2868 22.4553 66.3401 22.5341C66.3935 22.613 66.4509 22.6293 66.5126 22.5832L66.6417 22.5291L67.1989 22.265C67.2978 22.1629 67.3777 22.2811 67.4388 22.6199C67.5171 22.9514 67.5693 23.4861 67.5954 24.2241C67.5033 24.7283 67.3722 25.1881 67.2023 25.6035C67.0569 26.0289 66.9411 26.2596 66.855 26.2957ZM72.5574 17.194C72.513 17.2329 72.4391 17.274 72.3358 17.3173C72.0087 17.4545 71.6878 17.4373 71.3729 17.2657C71.0681 17.0697 70.8001 16.6963 70.5691 16.1454C70.3886 15.7151 70.2423 15.1489 70.1301 14.447C70.1689 13.864 70.1378 13.4519 70.0368 13.2109C70.0001 12.8822 69.9826 12.4543 69.9843 11.9274C69.9787 11.3832 69.9856 10.9653 70.005 10.6738C70.0739 10.6449 70.1175 10.5558 70.1358 10.4064C70.1713 10.2498 70.1638 10.1113 70.1133 9.99076C70.0483 9.83583 70.0092 9.67008 69.9958 9.49349C69.9925 9.29247 70.0108 9.1431 70.0508 9.04536C70.0291 8.99372 70.0275 8.89321 70.0458 8.74383C70.0569 8.57724 70.0516 8.46813 70.03 8.41649C70.0155 8.38206 70.0111 8.3232 70.0166 8.2399C70.0322 8.13217 70.0291 8.05249 70.0075 8.00084C70.1007 7.35447 70.1404 6.19417 70.1265 4.51994C70.1126 2.84571 70.0673 1.8931 69.9906 1.6621C69.8934 1.2373 69.9762 1.00018 70.2388 0.95075C70.296 0.845797 70.4882 0.724736 70.8152 0.587568C70.8741 0.583125 70.9868 0.586454 71.1534 0.597554C71.32 0.608656 71.4802 0.652798 71.634 0.729981C71.8051 0.799943 71.9353 0.917385 72.0247 1.08231C72.1313 1.24001 72.2424 1.45657 72.3579 1.732C72.449 1.99743 72.4906 2.31395 72.4828 2.68156C72.4679 3.03195 72.4343 3.41039 72.3821 3.81687C72.3299 4.22335 72.2983 4.50989 72.2872 4.67648L72.2114 5.43696C72.1381 6.03447 72.1195 6.37626 72.1556 6.46233C72.1845 6.53118 72.1956 6.67834 72.1889 6.90379C72.1751 7.11203 72.1676 7.28722 72.1665 7.42938C72.1226 7.71092 72.1062 8.08214 72.1173 8.54304C72.1457 8.99672 72.1779 9.26659 72.214 9.35266C72.2112 9.39431 72.2107 9.46539 72.2123 9.5659C72.2312 9.65919 72.2207 9.7547 72.1807 9.85243C72.129 9.87409 72.1127 9.93156 72.1315 10.0249C72.1432 10.1009 72.1563 10.1562 72.1707 10.1906C72.2068 10.2767 72.236 10.4669 72.2582 10.7612C72.2804 11.0555 72.279 11.3901 72.254 11.7649C72.369 13.6801 72.5487 15.0014 72.7931 15.7289C72.9102 16.1048 72.9325 16.3991 72.8597 16.6118C72.8042 16.8173 72.7034 17.0113 72.5574 17.194ZM72.8674 21.7703C72.598 22.0451 72.3515 22.2295 72.1277 22.3234C71.8695 22.4316 71.5263 22.4339 71.0982 22.33C70.7317 22.1801 70.4943 21.9761 70.386 21.7179C70.2055 21.2875 70.3435 20.7236 70.7999 20.0261C71.0776 19.6263 71.3025 19.3903 71.4746 19.3181C71.5951 19.2676 71.8478 19.2426 72.2326 19.2431C72.8862 19.3536 73.2924 19.5982 73.4512 19.9769C73.6534 20.4589 73.4587 21.0567 72.8674 21.7703Z" fill="white"/>
</svg>
