<?xml version="1.0"?>
<svg xmlns="http://www.w3.org/2000/svg" width="38" height="86" viewBox="0 0 38 86" fill="none">
<path d="M35.878 85.9577C36.567 86.0006 37.1603 85.4767 37.2031 84.7877C37.2459 84.0987 36.7221 83.5054 36.0331 83.4625L35.878 85.9577ZM35.0588 7.81131C35.3554 7.1879 35.0904 6.44211 34.467 6.14554L24.308 1.31267C23.6846 1.0161 22.9388 1.28105 22.6422 1.90446C22.3456 2.52787 22.6106 3.27366 23.234 3.57023L32.2643 7.86612L27.9684 16.8964C27.6718 17.5198 27.9367 18.2656 28.5602 18.5621C29.1836 18.8587 29.9294 18.5937 30.2259 17.9703L35.0588 7.81131ZM36.0331 83.4625C16.6847 82.26 4.96993 67.6077 3.70435 51.1583C2.44154 34.7448 11.6184 16.5275 34.3485 8.4522L33.5116 6.09645C9.72803 14.546 -0.138533 33.8001 1.21172 51.35C2.5592 68.864 15.114 84.6672 35.878 85.9577L36.0331 83.4625Z" fill="#2A5EE4"/>
</svg>
