<?xml version="1.0"?>
<svg xmlns="http://www.w3.org/2000/svg" width="26" height="27" viewBox="0 0 26 27" fill="none">
<g clip-path="url(#clip0)">
<path d="M24.1883 7.18618C22.7168 7.18618 21.3591 6.6987 20.2688 5.87634C19.0184 4.93362 18.12 3.55077 17.8028 1.95691C17.7242 1.5631 17.6819 1.1567 17.6779 0.740234H13.4744V12.2261L13.4694 18.5174C13.4694 20.1994 12.3741 21.6256 10.8557 22.1272C10.4151 22.2727 9.93921 22.3417 9.44368 22.3145C8.81117 22.2798 8.21844 22.0889 7.70327 21.7807C6.60696 21.125 5.86366 19.9356 5.84351 18.5749C5.81179 16.4482 7.53104 14.7143 9.65619 14.7143C10.0757 14.7143 10.4786 14.7828 10.8557 14.9072V11.7678V10.6393C10.4579 10.5804 10.053 10.5497 9.6436 10.5497C7.31752 10.5497 5.14201 11.5165 3.58693 13.2585C2.41155 14.5748 1.70653 16.2543 1.59775 18.0154C1.45523 20.3289 2.30177 22.528 3.94347 24.1506C4.18469 24.3888 4.438 24.6099 4.70288 24.8138C6.11042 25.897 7.83118 26.4842 9.6436 26.4842C10.053 26.4842 10.4579 26.454 10.8557 26.3951C12.5488 26.1443 14.1109 25.3693 15.3437 24.1506C16.8585 22.6534 17.6955 20.6658 17.7046 18.5502L17.6829 9.15521C18.4056 9.71269 19.1957 10.174 20.0437 10.532C21.3626 11.0885 22.7611 11.3705 24.2004 11.37V8.31775V7.18517C24.2014 7.18618 24.1893 7.18618 24.1883 7.18618V7.18618Z" fill="white"/>
</g>
<defs>
<clipPath id="clip0">
<rect width="25.7838" height="25.7838" fill="white" transform="translate(0 0.720703)"/>
</clipPath>
</defs>
</svg>
