<?xml version="1.0"?>
<svg xmlns="http://www.w3.org/2000/svg" width="132" height="23" viewBox="0 0 132 23" fill="none">
<g clip-path="url(#clip0)">
<path d="M21.0969 8.41964C21.0392 8.24983 20.9331 8.10061 20.7916 7.99043C20.6501 7.88024 20.4795 7.81389 20.3007 7.79959L15.0716 7.38408L12.8087 2.37506C12.7367 2.21373 12.6195 2.07671 12.4712 1.98052C12.323 1.88434 12.1501 1.8331 11.9734 1.83301C11.7968 1.83291 11.6238 1.88395 11.4755 1.97998C11.3272 2.076 11.2098 2.2129 11.1375 2.37415L8.87473 7.38408L3.64558 7.79959C3.46989 7.8135 3.30193 7.87774 3.16179 7.98462C3.02165 8.0915 2.91527 8.23648 2.85537 8.40224C2.79548 8.56799 2.7846 8.74749 2.82405 8.91926C2.8635 9.09103 2.9516 9.2478 3.07781 9.37081L6.94212 13.1379L5.57544 19.0559C5.53394 19.235 5.54724 19.4225 5.61361 19.594C5.67999 19.7655 5.79637 19.913 5.94765 20.0175C6.09894 20.1221 6.27815 20.1787 6.46202 20.1801C6.6459 20.1815 6.82595 20.1276 6.97881 20.0254L11.9731 16.6958L16.9675 20.0254C17.1237 20.1291 17.308 20.1825 17.4955 20.1784C17.683 20.1743 17.8647 20.1129 18.0162 20.0024C18.1678 19.8919 18.2819 19.7377 18.3431 19.5604C18.4044 19.3832 18.4099 19.1914 18.3589 19.0109L16.6813 13.1406L20.8419 9.39649C21.1143 9.15067 21.2143 8.76727 21.0969 8.41964V8.41964Z" fill="#F3CD03"/>
<path d="M48.1118 8.41964C48.0541 8.24983 47.948 8.10061 47.8065 7.99043C47.665 7.88024 47.4944 7.81389 47.3156 7.79959L42.0865 7.38408L39.8236 2.37506C39.7516 2.21373 39.6344 2.07671 39.4861 1.98052C39.3379 1.88434 39.165 1.8331 38.9883 1.83301C38.8116 1.83291 38.6387 1.88395 38.4904 1.97998C38.342 2.076 38.2247 2.2129 38.1524 2.37415L35.8896 7.38408L30.6605 7.79959C30.4848 7.8135 30.3168 7.87774 30.1767 7.98462C30.0365 8.0915 29.9302 8.23648 29.8703 8.40224C29.8104 8.56799 29.7995 8.74749 29.8389 8.91926C29.8784 9.09103 29.9665 9.2478 30.0927 9.37081L33.957 13.1379L32.5903 19.0559C32.5488 19.235 32.5621 19.4225 32.6285 19.594C32.6949 19.7655 32.8113 19.913 32.9625 20.0175C33.1138 20.1221 33.293 20.1787 33.4769 20.1801C33.6608 20.1815 33.8408 20.1276 33.9937 20.0254L38.988 16.6958L43.9824 20.0254C44.1386 20.1291 44.3229 20.1825 44.5104 20.1784C44.6979 20.1743 44.8796 20.1129 45.0311 20.0024C45.1827 19.8919 45.2968 19.7377 45.358 19.5604C45.4193 19.3832 45.4248 19.1914 45.3738 19.0109L43.6962 13.1406L47.8568 9.39649C48.1292 9.15067 48.2292 8.76727 48.1118 8.41964V8.41964Z" fill="#F3CD03"/>
<path d="M75.123 8.41964C75.0653 8.24983 74.9592 8.10061 74.8177 7.99043C74.6763 7.88024 74.5056 7.81389 74.3268 7.79959L69.0977 7.38408L66.8349 2.37506C66.7628 2.21373 66.6456 2.07671 66.4974 1.98052C66.3492 1.88434 66.1763 1.8331 65.9996 1.83301C65.8229 1.83291 65.6499 1.88395 65.5016 1.97998C65.3533 2.076 65.2359 2.2129 65.1637 2.37415L62.9009 7.38408L57.6717 7.79959C57.496 7.8135 57.328 7.87774 57.1879 7.98462C57.0478 8.0915 56.9414 8.23648 56.8815 8.40224C56.8216 8.56799 56.8107 8.74749 56.8502 8.91926C56.8896 9.09103 56.9777 9.2478 57.1039 9.37081L60.9682 13.1379L59.6016 19.0559C59.5601 19.235 59.5734 19.4225 59.6397 19.594C59.7061 19.7655 59.8225 19.913 59.9738 20.0175C60.1251 20.1221 60.3043 20.1787 60.4881 20.1801C60.672 20.1815 60.8521 20.1276 61.0049 20.0254L65.9993 16.6958L70.9936 20.0254C71.1498 20.1291 71.3341 20.1825 71.5216 20.1784C71.7091 20.1743 71.8908 20.1129 72.0424 20.0024C72.1939 19.8919 72.308 19.7377 72.3692 19.5604C72.4305 19.3832 72.436 19.1914 72.3851 19.0109L70.7074 13.1406L74.868 9.39649C75.1404 9.15067 75.2404 8.76727 75.123 8.41964V8.41964Z" fill="#F3CD03"/>
<path d="M102.137 8.41964C102.079 8.24983 101.973 8.10061 101.831 7.99043C101.69 7.88024 101.519 7.81389 101.341 7.79959L96.1114 7.38408L93.8485 2.37506C93.7765 2.21373 93.6593 2.07671 93.511 1.98052C93.3628 1.88434 93.1899 1.8331 93.0132 1.83301C92.8365 1.83291 92.6636 1.88395 92.5153 1.97998C92.3669 2.076 92.2496 2.2129 92.1773 2.37415L89.9145 7.38408L84.6854 7.79959C84.5097 7.8135 84.3417 7.87774 84.2016 7.98462C84.0614 8.0915 83.9551 8.23648 83.8952 8.40224C83.8353 8.56799 83.8244 8.74749 83.8638 8.91926C83.9033 9.09103 83.9914 9.2478 84.1176 9.37081L87.9819 13.1379L86.6152 19.0559C86.5737 19.235 86.587 19.4225 86.6534 19.594C86.7198 19.7655 86.8362 19.913 86.9874 20.0175C87.1387 20.1221 87.3179 20.1787 87.5018 20.1801C87.6857 20.1815 87.8657 20.1276 88.0186 20.0254L93.0129 16.6958L98.0073 20.0254C98.1635 20.1291 98.3478 20.1825 98.5353 20.1784C98.7228 20.1743 98.9045 20.1129 99.056 20.0024C99.2076 19.8919 99.3217 19.7377 99.3829 19.5604C99.4442 19.3832 99.4497 19.1914 99.3987 19.0109L97.7211 13.1406L101.882 9.39649C102.154 9.15067 102.254 8.76727 102.137 8.41964V8.41964Z" fill="#F3CD03"/>
<path d="M129.15 8.41964C129.093 8.24983 128.987 8.10061 128.845 7.99043C128.704 7.88024 128.533 7.81389 128.354 7.79959L123.125 7.38408L120.862 2.37506C120.79 2.21373 120.673 2.07671 120.525 1.98052C120.376 1.88434 120.204 1.8331 120.027 1.83301C119.85 1.83291 119.677 1.88395 119.529 1.97998C119.381 2.076 119.263 2.2129 119.191 2.37415L116.928 7.38408L111.699 7.79959C111.523 7.8135 111.355 7.87774 111.215 7.98462C111.075 8.0915 110.969 8.23648 110.909 8.40224C110.849 8.56799 110.838 8.74749 110.878 8.91926C110.917 9.09103 111.005 9.2478 111.131 9.37081L114.996 13.1379L113.629 19.0559C113.587 19.235 113.601 19.4225 113.667 19.594C113.733 19.7655 113.85 19.913 114.001 20.0175C114.152 20.1221 114.332 20.1787 114.515 20.1801C114.699 20.1815 114.879 20.1276 115.032 20.0254L120.027 16.6958L125.021 20.0254C125.177 20.1291 125.361 20.1825 125.549 20.1784C125.736 20.1743 125.918 20.1129 126.07 20.0024C126.221 19.8919 126.335 19.7377 126.397 19.5604C126.458 19.3832 126.463 19.1914 126.412 19.0109L124.735 13.1406L128.895 9.39649C129.168 9.15067 129.268 8.76727 129.15 8.41964V8.41964Z" fill="#F3CD03"/>
</g>
<defs>
<clipPath id="clip0">
<rect width="130.068" height="22.0136" fill="white" transform="translate(0.966064)"/>
</clipPath>
</defs>
</svg>
