<?xml version="1.0"?>
<svg xmlns="http://www.w3.org/2000/svg" width="38" height="31" viewBox="0 0 38 31" fill="none">
<path fill-rule="evenodd" clip-rule="evenodd" d="M8.96853 1.23163C6.50789 2.64409 4.04767 4.05587 1.59761 5.48597C0.00379119 6.4168 -0.567768 8.72687 0.833877 10.1228C3.57543 12.8545 5.97397 15.8168 8.24793 18.9445C10.1168 21.5146 13.994 18.3998 12.6171 15.8066L12.6288 15.8026C11.5171 13.912 10.2815 12.1297 8.94281 10.4246C20.6246 12.0704 29.7951 19.6473 35.881 29.9484C36.3412 30.7287 37.7311 30.3024 37.4302 29.3575C33.6923 17.6093 22.4135 9.55663 10.4969 7.30579C10.94 7.05745 11.3844 6.8117 11.8279 6.56268C15.2281 4.65456 12.3462 -0.707968 8.96853 1.23163" fill="white"/>
</svg>
