<?xml version="1.0"?>
<svg xmlns="http://www.w3.org/2000/svg" width="13" height="13" viewBox="0 0 13 13" fill="none">
<g clip-path="url(#clip0)">
<path d="M12.9968 13.0001V12.9995H13.0001V8.23178C13.0001 5.89937 12.4979 4.10266 9.77118 4.10266C8.46035 4.10266 7.58068 4.82199 7.22156 5.50395H7.18364V4.32041H4.59827V12.9995H7.29035V8.70195C7.29035 7.57041 7.50485 6.47624 8.90614 6.47624C10.2868 6.47624 10.3074 7.76758 10.3074 8.77453V13.0001H12.9968Z" fill="white"/>
<path d="M0.214478 4.32092H2.90981V13H0.214478V4.32092Z" fill="white"/>
<path d="M1.56108 0C0.699292 0 0 0.699292 0 1.56108C0 2.42288 0.699292 3.13679 1.56108 3.13679C2.42288 3.13679 3.12217 2.42288 3.12217 1.56108C3.12163 0.699292 2.42233 0 1.56108 0V0Z" fill="white"/>
</g>
<defs>
<clipPath id="clip0">
<rect width="13" height="13" fill="white"/>
</clipPath>
</defs>
</svg>
