<?xml version="1.0"?>
<svg xmlns="http://www.w3.org/2000/svg" width="221" height="221" viewBox="0 0 221 221" fill="none">
<path d="M214.985 162.192L184.144 131.351C173.129 120.336 154.404 124.742 149.999 139.061C146.694 148.974 135.679 154.482 125.766 152.278C103.737 146.771 73.997 118.133 68.4896 95.0019C65.1852 85.0883 71.794 74.0735 81.7073 70.7696C96.0264 66.3637 100.432 47.6387 89.4176 36.6239L58.5764 5.78273C49.7646 -1.92758 36.5469 -1.92758 28.8366 5.78273L7.90866 26.7107C-13.0193 48.7401 10.1116 107.118 61.8808 158.887C113.65 210.656 172.028 234.889 194.057 212.859L214.985 191.931C222.696 183.12 222.696 169.902 214.985 162.192Z" fill="#2B5FE4"/>
</svg>
