<?xml version="1.0"?>
<svg xmlns="http://www.w3.org/2000/svg" width="27" height="28" viewBox="0 0 27 28" fill="none">
<g clip-path="url(#clip0)">
<path d="M13.9939 0.630859C6.66412 0.631973 2.76807 5.32796 2.76807 10.4484C2.76807 12.8226 4.09498 15.785 6.21959 16.7242C6.82567 16.9972 6.74545 16.6641 7.26686 14.6698C7.30808 14.5038 7.28691 14.3601 7.15322 14.2052C4.11614 10.6924 6.56051 3.47074 13.5605 3.47074C23.6911 3.47074 21.7982 17.4885 15.323 17.4885C13.6541 17.4885 12.4107 16.1783 12.804 14.5573C13.2808 12.6265 14.2145 10.5509 14.2145 9.1594C14.2145 5.65217 8.98928 6.17246 8.98928 10.8194C8.98928 12.2555 9.49732 13.2248 9.49732 13.2248C9.49732 13.2248 7.81612 20.0164 7.50417 21.2854C6.97608 23.4334 7.57547 26.9106 7.62783 27.2103C7.66014 27.3752 7.84508 27.4275 7.9487 27.2916C8.1147 27.0744 10.1468 24.1754 10.7162 22.0798C10.9234 21.3166 11.7735 18.2194 11.7735 18.2194C12.3338 19.231 13.9493 20.0777 15.6706 20.0777C20.7911 20.0777 24.4922 15.5767 24.4922 9.99165C24.4744 4.63721 19.892 0.630859 13.9939 0.630859V0.630859Z" fill="white"/>
</g>
<defs>
<clipPath id="clip0">
<rect width="26.7387" height="26.7387" fill="white" transform="translate(0.26123 0.630859)"/>
</clipPath>
</defs>
</svg>
