<?xml version="1.0"?>
<svg xmlns="http://www.w3.org/2000/svg" width="31" height="32" viewBox="0 0 31 32" fill="none">
<path d="M29.2414 8.83986C28.9113 7.61254 27.9436 6.64505 26.7165 6.31457C24.4746 5.70117 15.5071 5.70117 15.5071 5.70117C15.5071 5.70117 6.53986 5.70117 4.29802 6.29132C3.09447 6.62145 2.10321 7.61271 1.77307 8.83986C1.18311 11.0815 1.18311 15.7305 1.18311 15.7305C1.18311 15.7305 1.18311 20.4028 1.77307 22.6211C2.10356 23.8482 3.07087 24.8157 4.29819 25.1462C6.56347 25.7598 15.5074 25.7598 15.5074 25.7598C15.5074 25.7598 24.4746 25.7598 26.7165 25.1696C27.9438 24.8393 28.9113 23.8718 29.2418 22.6447C29.8316 20.4028 29.8316 15.7541 29.8316 15.7541C29.8316 15.7541 29.8552 11.0815 29.2414 8.83986V8.83986ZM12.652 20.0253V11.4356L20.109 15.7305L12.652 20.0253Z" fill="white"/>
</svg>
