<?xml version="1.0"?>
<svg xmlns="http://www.w3.org/2000/svg" width="47" height="111" viewBox="0 0 47 111" fill="none">
<path d="M2.53667 105.777C1.9132 106.073 1.16746 105.808 0.871012 105.185C0.574565 104.561 0.839662 103.816 1.46313 103.519L2.53667 105.777ZM19.8865 4.41124C19.8831 3.72089 20.4401 3.15854 21.1304 3.15519L32.3803 3.10061C33.0706 3.09726 33.633 3.65418 33.6363 4.34453C33.6397 5.03488 33.0827 5.59723 32.3924 5.60058L22.3925 5.64909L22.441 15.649C22.4444 16.3393 21.8875 16.9017 21.1971 16.905C20.5068 16.9084 19.9444 16.3515 19.9411 15.6611L19.8865 4.41124ZM1.46313 103.519C20.0584 94.6773 31.6562 76.9508 35.1408 57.9621C38.6265 38.967 33.9666 18.8707 20.2569 5.29333L22.016 3.51701C36.4209 17.7828 41.2048 38.7678 37.5997 58.4133C33.9935 78.0653 21.9658 96.5386 2.53667 105.777L1.46313 103.519Z" fill="#2A5EE4"/>
</svg>
