<?xml version="1.0"?>
<svg xmlns="http://www.w3.org/2000/svg" viewBox="0 0 96 81" width="96" height="81">
	<defs>
		<clipPath clipPathUnits="userSpaceOnUse" id="cp1">
			<path d="M-333 -743L460.7 -743L460.7 379.52L-333 379.52L-333 -743Z"/>
		</clipPath>
		<clipPath clipPathUnits="userSpaceOnUse" id="cp2">
			<path d="M-39.4 -365.19L-26.56 -365.19L-26.56 -295.37L-39.4 -295.37L-39.4 -365.19Z"/>
		</clipPath>
		<clipPath clipPathUnits="userSpaceOnUse" id="cp3">
			<path d="M-31.6 -364.46L-24.42 -364.46L-24.42 -295.37L-31.6 -295.37L-31.6 -364.46Z"/>
		</clipPath>
		<clipPath clipPathUnits="userSpaceOnUse" id="cp4">
			<path d="M-23.77 -363.89L-22.12 -363.89L-22.12 -295.37L-23.77 -295.37L-23.77 -363.89Z"/>
		</clipPath>
		<clipPath clipPathUnits="userSpaceOnUse" id="cp5">
			<path d="M-21.39 -363.43L-14.32 -363.43L-14.32 -295.37L-21.39 -295.37L-21.39 -363.43Z"/>
		</clipPath>
		<clipPath clipPathUnits="userSpaceOnUse" id="cp6">
			<path d="M-18.99 -363.09L-6.41 -363.09L-6.41 -295.37L-18.99 -295.37L-18.99 -363.09Z"/>
		</clipPath>
		<clipPath clipPathUnits="userSpaceOnUse" id="cp7">
			<path d="M-41.21 -179.85L-28.36 -179.85L-28.36 -110.04L-41.21 -110.04L-41.21 -179.85Z"/>
		</clipPath>
		<clipPath clipPathUnits="userSpaceOnUse" id="cp8">
			<path d="M-33.41 -179.13L-26.22 -179.13L-26.22 -110.04L-33.41 -110.04L-33.41 -179.13Z"/>
		</clipPath>
		<clipPath clipPathUnits="userSpaceOnUse" id="cp9">
			<path d="M-25.57 -178.55L-23.92 -178.55L-23.92 -110.04L-25.57 -110.04L-25.57 -178.55Z"/>
		</clipPath>
		<clipPath clipPathUnits="userSpaceOnUse" id="cp10">
			<path d="M-23.2 -178.09L-16.13 -178.09L-16.13 -110.04L-23.2 -110.04L-23.2 -178.09Z"/>
		</clipPath>
		<clipPath clipPathUnits="userSpaceOnUse" id="cp11">
			<path d="M-20.79 -177.75L-8.21 -177.75L-8.21 -110.04L-20.79 -110.04L-20.79 -177.75Z"/>
		</clipPath>
		<clipPath clipPathUnits="userSpaceOnUse" id="cp12">
			<path d="M53.05 9.06L65.9 9.06L65.9 78.88L53.05 78.88L53.05 9.06Z"/>
		</clipPath>
		<clipPath clipPathUnits="userSpaceOnUse" id="cp13">
			<path d="M60.85 9.79L68.04 9.79L68.04 78.88L60.85 78.88L60.85 9.79Z"/>
		</clipPath>
		<clipPath clipPathUnits="userSpaceOnUse" id="cp14">
			<path d="M68.69 10.36L70.34 10.36L70.34 78.88L68.69 78.88L68.69 10.36Z"/>
		</clipPath>
		<clipPath clipPathUnits="userSpaceOnUse" id="cp15">
			<path d="M71.06 10.82L78.14 10.82L78.14 78.88L71.06 78.88L71.06 10.82Z"/>
		</clipPath>
		<clipPath clipPathUnits="userSpaceOnUse" id="cp16">
			<path d="M73.47 11.17L86.05 11.17L86.05 78.88L73.47 78.88L73.47 11.17Z"/>
		</clipPath>
	</defs>
	<style>
		tspan { white-space:pre }
		.shp0 { fill: #2a50a3 } 
		.shp1 { fill: #383838 } 
		.shp2 { fill: #ffffff } 
	</style>
	<g id="g10">
		<g id="g12">
			<g id="Clip-Path: g14" clip-path="url(#cp1)">
				<g id="g14">
					<g id="g20">
						<path id="path22" fill-rule="evenodd" class="shp0" d="M30.23 -513.44L30.23 -499.42L26.38 -499.42L26.38 -519.65L30.23 -519.65L36.4 -510.81L42.76 -519.65L46.41 -519.65L46.41 -499.42L42.76 -499.42L42.76 -513.44L36.4 -504.79L30.23 -513.44ZM66.1 -499.42L51.74 -499.42L51.74 -519.65L65.53 -519.65L65.53 -515.84L55.63 -515.84L55.63 -511.46L64.46 -511.46L64.46 -507.61L55.63 -507.61L55.63 -503.23L66.1 -503.23L66.1 -499.42ZM-80.65 -509.63C-80.65 -502.81 -85.94 -499.27 -90.97 -499.27C-96.34 -499.04 -101.86 -502.58 -101.86 -509.63C-101.86 -516.75 -96.34 -520.22 -90.97 -520.22C-85.94 -519.95 -80.65 -516.48 -80.65 -509.63ZM-84.46 -509.63C-84.46 -514.2 -88 -516.48 -91.31 -516.48C-94.55 -516.48 -98.05 -514.2 -98.05 -509.63C-98.05 -505.13 -94.55 -502.81 -91.31 -502.81C-88 -502.81 -84.46 -505.13 -84.46 -509.63ZM-71.55 -499.42L-80.12 -519.65L-75.74 -519.65L-69.34 -504.79L-62.87 -519.65L-58.6 -519.65L-67.24 -499.42L-71.55 -499.42ZM-41.58 -499.42L-55.94 -499.42L-55.94 -519.65L-42.15 -519.65L-42.15 -515.84L-52.05 -515.84L-52.05 -511.46L-43.22 -511.46L-43.22 -507.61L-52.05 -507.61L-52.05 -503.23L-41.58 -503.23L-41.58 -499.42ZM-33.43 -499.42L-37.32 -499.42L-37.32 -519.65L-27.8 -519.65C-20.37 -519.65 -18.89 -509.7 -25.06 -507.23L-19.23 -499.42L-24.03 -499.42L-29.09 -506.62L-33.43 -506.62L-33.43 -499.42ZM-33.43 -509.97L-27.8 -509.97C-24.03 -509.97 -23.76 -516.1 -27.8 -516.1L-33.43 -516.1L-33.43 -509.97ZM-7.66 -499.23C-14.74 -499.23 -17.9 -504.03 -17.9 -509.67C-17.9 -515.3 -14.4 -520.18 -7.66 -520.18C-5.1 -520.18 -3.09 -519.42 -0.96 -517.55C-0.76 -517.36 -0.38 -517.02 0 -516.52L-2.63 -513.9C-3.01 -514.31 -3.35 -514.66 -3.54 -514.81C-4.88 -515.91 -5.98 -516.41 -7.66 -516.41C-12.15 -516.41 -14.32 -513.25 -14.32 -509.67C-14.32 -506.05 -12.19 -502.73 -7.66 -502.73C-5.98 -502.73 -4.46 -503.42 -3.09 -504.6C-2.9 -504.75 -2.52 -505.13 -2.1 -505.51L0.3 -502.62C-0.08 -502.12 -0.5 -501.74 -0.73 -501.48C-2.78 -499.57 -5.22 -499.23 -7.66 -499.23ZM22.88 -509.63C22.88 -502.73 17.51 -499.11 12.41 -499.11C7 -498.88 1.41 -502.47 1.41 -509.63C1.41 -516.83 7 -520.37 12.41 -520.37C17.51 -520.1 22.88 -516.56 22.88 -509.63ZM12.11 -516.56C8.83 -516.56 5.25 -514.28 5.25 -509.63C5.25 -505.06 8.83 -502.73 12.11 -502.73C15.46 -502.73 19.04 -505.06 19.04 -509.63C19.04 -514.28 15.46 -516.56 12.11 -516.56Z"/>
					</g>
					<path id="path24" fill-rule="evenodd" class="shp0" d="M229.94 -519.65L233.82 -519.65L233.82 -499.42L229.94 -499.42L229.94 -519.65ZM262.27 -499.42L258.38 -499.42L258.38 -519.65L267.9 -519.65C275.29 -519.65 276.81 -509.7 270.64 -507.23L276.47 -499.42L271.67 -499.42L266.61 -506.62L262.27 -506.62L262.27 -499.42ZM262.27 -509.97L267.9 -509.97C271.67 -509.97 271.94 -516.1 267.9 -516.1L262.27 -516.1L262.27 -509.97ZM254.12 -499.42L239.76 -499.42L239.76 -519.65L253.55 -519.65L253.55 -515.84L243.65 -515.84L243.65 -511.46L252.48 -511.46L252.48 -507.61L243.65 -507.61L243.65 -503.23L254.12 -503.23L254.12 -499.42ZM212.54 -499.42L208.66 -499.42L208.66 -519.65L218.17 -519.65C225.6 -519.65 227.12 -509.7 220.92 -507.23L226.78 -499.42L221.98 -499.42L216.92 -506.62L212.54 -506.62L212.54 -499.42ZM212.54 -509.97L218.17 -509.97C221.98 -509.97 222.21 -516.1 218.17 -516.1L212.54 -516.1L212.54 -509.97ZM191.29 -499.42L187.41 -499.42L187.41 -519.65L196.93 -519.65C204.31 -519.65 205.84 -509.7 199.67 -507.23L205.5 -499.42L200.7 -499.42L195.63 -506.62L191.29 -506.62L191.29 -499.42ZM191.29 -509.97L196.93 -509.97C200.7 -509.97 200.93 -516.1 196.93 -516.1L191.29 -516.1L191.29 -509.97ZM74.67 -519.65L82.97 -519.65L83 -519.72L83.04 -519.65L91.38 -519.65L91.38 -515.84L85.06 -515.84L85.06 -499.42L81.21 -499.42L81.21 -515.84L74.67 -515.84L74.67 -519.65ZM132.16 -499.42L117.81 -499.42L117.81 -519.65L131.59 -519.65L131.59 -515.84L121.69 -515.84L121.69 -511.46L130.52 -511.46L130.52 -507.61L121.69 -507.61L121.69 -503.23L132.16 -503.23L132.16 -499.42ZM95.3 -499.42L95.3 -519.65L99.15 -519.65L99.15 -511.46L108.67 -511.46L108.67 -519.65L112.47 -519.65L112.47 -499.42L108.67 -499.42L108.67 -507.61L99.15 -507.61L99.15 -499.42L95.3 -499.42ZM144.23 -499.42L144.23 -519.65L154.21 -519.65C158.05 -519.65 160.11 -517.02 160.11 -514.05C160.11 -512.75 159.73 -511.46 158.51 -510.39C160.83 -509.48 161.82 -507.69 161.82 -505.51C161.82 -502.16 159.58 -499.42 155.2 -499.42L144.23 -499.42ZM148.04 -503L155.2 -503C158.55 -503 158.55 -508.14 155.2 -508.14L148.04 -508.14L148.04 -503ZM154.21 -516.07L148.04 -516.07L148.04 -511.72L154.21 -511.72C155.46 -511.72 156.26 -512.52 156.26 -514.05C156.26 -515.04 155.46 -516.07 154.21 -516.07ZM162.28 -499.42L172.03 -519.65L175.49 -519.65L185.2 -499.42L180.9 -499.42L179.22 -503L168.33 -503L166.66 -499.42L162.28 -499.42ZM177.36 -506.85L173.78 -514.43L170.16 -506.85L177.36 -506.85Z"/>
					<g id="g26">
						<path id="path28" fill-rule="evenodd" class="shp1" d="M126.26 -329.9C120.83 -329.67 115.21 -333.26 115.21 -340.45C115.21 -347.64 120.83 -351.19 126.26 -351.19C131.39 -350.93 136.78 -347.41 136.78 -340.45C136.78 -333.49 131.39 -329.9 126.26 -329.9ZM132.92 -340.45C132.92 -345.08 129.32 -347.41 125.96 -347.41C122.67 -347.41 119.08 -345.08 119.08 -340.45C119.08 -335.82 122.67 -333.49 125.96 -333.49C129.32 -333.49 132.92 -335.82 132.92 -340.45ZM106.11 -329.97C99 -329.97 95.83 -334.79 95.83 -340.49C95.83 -346.15 99.39 -351 106.11 -351C108.67 -351 110.7 -350.24 112.84 -348.4C113.03 -348.21 113.41 -347.83 113.84 -347.33L111.16 -344.69C110.78 -345.15 110.47 -345.46 110.24 -345.65C108.91 -346.72 107.79 -347.25 106.11 -347.25C101.6 -347.25 99.42 -344.04 99.42 -340.49C99.42 -336.82 101.57 -333.49 106.11 -333.49C107.79 -333.49 109.33 -334.18 110.7 -335.37C110.89 -335.56 111.28 -335.9 111.69 -336.32L114.1 -333.38C113.72 -332.92 113.34 -332.5 113.07 -332.27C111.05 -330.36 108.56 -329.97 106.11 -329.97ZM80.23 -330.17L76.33 -330.17L76.33 -350.47L85.89 -350.47C93.34 -350.47 94.87 -340.49 88.64 -338L94.49 -330.17L89.71 -330.17L84.63 -337.39L80.23 -337.39L80.23 -330.17ZM80.23 -340.75L85.89 -340.75C89.71 -340.75 89.94 -346.91 85.89 -346.91L80.23 -346.91L80.23 -340.75ZM72.09 -330.17L57.63 -330.17L57.63 -350.47L71.47 -350.47L71.47 -346.64L61.53 -346.64L61.53 -342.25L70.4 -342.25L70.4 -338.42L61.53 -338.42L61.53 -334.03L72.09 -334.03L72.09 -330.17ZM41.96 -330.17L33.39 -350.47L37.75 -350.47L44.17 -335.59L50.67 -350.47L54.96 -350.47L46.28 -330.17L41.96 -330.17ZM22.46 -330.01C17.11 -329.78 11.52 -333.34 11.52 -340.45C11.52 -347.56 17.11 -351.08 22.46 -351.08C27.51 -350.81 32.82 -347.29 32.82 -340.45C32.82 -333.57 27.51 -330.01 22.46 -330.01ZM22.11 -347.29C18.9 -347.29 15.35 -345 15.35 -340.45C15.35 -335.9 18.9 -333.57 22.11 -333.57C25.48 -333.57 29.03 -335.9 29.03 -340.45C29.03 -345 25.48 -347.29 22.11 -347.29ZM99.04 -296.56L108.87 -316.86L112.31 -316.86L122.09 -296.56L117.74 -296.56L116.05 -300.15L105.12 -300.15L103.44 -296.56L99.04 -296.56ZM114.18 -304.01L110.59 -311.66L106.99 -304.01L114.18 -304.01ZM80.92 -296.56L80.92 -316.86L90.97 -316.86C94.8 -316.86 96.86 -314.26 96.86 -311.28C96.86 -309.94 96.48 -308.64 95.25 -307.57C97.59 -306.65 98.62 -304.85 98.62 -302.71C98.62 -299.31 96.33 -296.56 91.93 -296.56L80.92 -296.56ZM90.97 -313.31L84.78 -313.31L84.78 -308.91L90.97 -308.91C92.23 -308.91 93 -309.71 93 -311.28C93 -312.23 92.23 -313.31 90.97 -313.31ZM84.78 -300.15L91.93 -300.15C95.33 -300.15 95.33 -305.35 91.93 -305.35L84.78 -305.35L84.78 -300.15ZM31.79 -296.56L31.79 -316.86L35.65 -316.86L35.65 -308.64L45.21 -308.64L45.21 -316.86L49.03 -316.86L49.03 -296.56L45.21 -296.56L45.21 -304.82L35.65 -304.82L35.65 -296.56L31.79 -296.56ZM180.21 -330.17L165.76 -330.17L165.76 -350.47L179.6 -350.47L179.6 -346.64L169.66 -346.64L169.66 -342.25L178.53 -342.25L178.53 -338.42L169.66 -338.42L169.66 -334.03L180.21 -334.03L180.21 -330.17ZM68.84 -296.56L54.38 -296.56L54.38 -316.86L68.22 -316.86L68.22 -313.04L58.28 -313.04L58.28 -308.64L67.15 -308.64L67.15 -304.82L58.28 -304.82L58.28 -300.42L68.84 -300.42L68.84 -296.56ZM11.07 -316.86L19.4 -316.86L19.44 -316.94L19.51 -316.86L27.85 -316.86L27.85 -313.04L21.5 -313.04L21.5 -296.56L17.64 -296.56L17.64 -313.04L11.07 -313.04L11.07 -316.86ZM128.17 -296.56L124.27 -296.56L124.27 -316.86L133.83 -316.86C141.29 -316.86 142.82 -306.88 136.59 -304.4L142.43 -296.56L137.66 -296.56L132.57 -303.79L128.17 -303.79L128.17 -296.56ZM128.17 -307.15L133.83 -307.15C137.66 -307.15 137.89 -313.31 133.83 -313.31L128.17 -313.31L128.17 -307.15ZM149.51 -296.56L145.61 -296.56L145.61 -316.86L155.17 -316.86C162.62 -316.86 164.15 -306.88 157.96 -304.4L163.81 -296.56L158.99 -296.56L153.91 -303.79L149.51 -303.79L149.51 -296.56ZM149.51 -307.15L155.17 -307.15C158.99 -307.15 159.22 -313.31 155.17 -313.31L149.51 -313.31L149.51 -307.15ZM191.3 -296.56L176.85 -296.56L176.85 -316.86L190.69 -316.86L190.69 -313.04L180.75 -313.04L180.75 -308.64L189.61 -308.64L189.61 -304.82L180.75 -304.82L180.75 -300.42L191.3 -300.42L191.3 -296.56ZM199.44 -296.56L195.54 -296.56L195.54 -316.86L205.1 -316.86C212.56 -316.86 214.09 -306.88 207.85 -304.4L213.74 -296.56L208.92 -296.56L203.84 -303.79L199.44 -303.79L199.44 -296.56ZM199.44 -307.15L205.1 -307.15C208.92 -307.15 209.15 -313.31 205.1 -313.31L199.44 -313.31L199.44 -307.15ZM167.02 -316.86L170.88 -316.86L170.88 -296.56L167.02 -296.56L167.02 -316.86ZM144.19 -344.24L144.19 -330.17L140.29 -330.17L140.29 -350.47L144.19 -350.47L150.35 -341.64L156.77 -350.47L160.41 -350.47L160.41 -330.17L156.77 -330.17L156.77 -344.24L150.35 -335.56L144.19 -344.24Z"/>
					</g>
					<g id="g30">
						<path id="path32" fill-rule="evenodd" class="shp2" d="M-61.92 -295.37L-80.94 -295.37L-66.38 -357.69L-63.11 -358.76L-61.38 -365.55L-58.14 -367.37L-59.18 -360.02L-48.35 -363.62L-46.33 -372.14L-42.35 -375.01L-42.17 -370L-56.39 -299.84L-61.92 -295.37Z"/>
					</g>
					<g id="g34">
						<path id="path36" fill-rule="evenodd" class="shp0" d="M-63.11 -358.76L-64.75 -352.11L-66.7 -351.5L-67.35 -349.02C-61.23 -350.96 -55.16 -352.91 -49.08 -354.86L-48.43 -357.54L-47.01 -355.97L-42.35 -375.01L-40.21 -372.57L-41.89 -365.72L-27.51 -370.43C-25.41 -370.58 -23.19 -370.24 -21.09 -369.74C-18.37 -369.09 -16.35 -368.06 -14.21 -366.26L2.16 -295.37L-1.13 -295.37L-17.07 -364.46C-20.06 -364.27 -25.45 -365.45 -28.32 -367.14L-45.25 -295.37L-61.92 -295.37L-58.98 -307.42L-62.27 -307.11L-65.17 -295.37L-78.94 -295.37L-76.3 -305.96L-73.39 -306.23L-76.11 -295.37L-91.21 -295.37L-75.34 -354.75L-63.11 -358.76ZM-52.83 -339.99L-52.17 -342.59L-50.68 -341.1L-47.7 -353.18L-51.18 -352.15L-53.63 -342.25L-65.1 -339.42L-62.8 -348.59L-65.86 -347.68L-68.12 -338.69L-70.03 -338.23L-70.56 -335.9L-52.83 -339.99ZM-56.61 -324.85L-55.96 -327.37L-54.39 -326.07L-51.26 -338.77L-54.66 -337.96L-57.33 -327.14L-68.65 -325.27L-66.13 -335.29L-69.15 -334.6L-71.6 -324.78L-73.47 -324.47L-74.04 -322.14L-56.61 -324.85ZM-60.09 -311.01L-58.41 -309.67L-54.97 -323.66L-58.33 -323.13L-61.35 -310.9L-72.51 -309.71L-69.61 -321.41L-72.55 -320.95L-75.42 -309.4L-77.25 -309.21L-77.83 -307C-72.09 -307.49 -66.4 -308.03 -60.7 -308.52L-60.09 -311.01ZM-61.69 -353.14L-58.14 -367.37L-56.07 -365.15L-57.18 -360.71L-48.35 -363.62L-49.96 -357.04L-61.69 -353.14Z"/>
					</g>
					<g id="g38">
						<g id="g40">
						</g>
						<g id="g52">
							<g id="Clip-Path: g50" clip-path="url(#cp2)">
								<g id="g50" style="opacity: 0.541">
									<g id="g48">
										<path id="path46" fill-rule="evenodd" class="shp0" d="M-26.56 -364.65L-37.8 -295.37L-39.4 -295.37L-28.09 -365.19C-27.59 -365 -27.09 -364.8 -26.56 -364.65Z"/>
									</g>
								</g>
							</g>
						</g>
					</g>
					<g id="g54">
						<g id="g56">
						</g>
						<g id="g68">
							<g id="Clip-Path: g66" clip-path="url(#cp3)">
								<g id="g66" style="opacity: 0.541">
									<g id="g64">
										<path id="path62" fill-rule="evenodd" class="shp0" d="M-24.42 -364.04L-30 -295.37L-31.6 -295.37L-25.98 -364.46C-25.45 -364.31 -24.91 -364.16 -24.42 -364.04Z"/>
									</g>
								</g>
							</g>
						</g>
					</g>
					<g id="g70">
						<g id="g72">
						</g>
						<g id="g84">
							<g id="Clip-Path: g82" clip-path="url(#cp4)">
								<g id="g82" style="opacity: 0.541">
									<g id="g80">
										<path id="path78" fill-rule="evenodd" class="shp0" d="M-22.12 -363.54L-22.16 -295.37L-23.77 -295.37L-23.73 -363.89C-23.19 -363.74 -22.66 -363.66 -22.12 -363.54Z"/>
									</g>
								</g>
							</g>
						</g>
					</g>
					<g id="g86">
						<g id="g88">
						</g>
						<g id="g100">
							<g id="Clip-Path: g98" clip-path="url(#cp5)">
								<g id="g98" style="opacity: 0.541">
									<g id="g96">
										<path id="path94" fill-rule="evenodd" class="shp0" d="M-19.75 -363.16L-14.32 -295.37L-15.93 -295.37L-21.39 -363.43C-20.82 -363.31 -20.29 -363.24 -19.75 -363.16Z"/>
									</g>
								</g>
							</g>
						</g>
					</g>
					<g id="g102">
						<g id="g104">
						</g>
						<g id="g116">
							<g id="Clip-Path: g114" clip-path="url(#cp6)">
								<g id="g114" style="opacity: 0.541">
									<g id="g112">
										<path id="path110" fill-rule="evenodd" class="shp0" d="M-17.34 -362.97L-6.41 -295.37L-8.02 -295.37L-18.99 -363.08C-18.41 -363.05 -17.88 -363.01 -17.34 -362.97Z"/>
									</g>
								</g>
							</g>
						</g>
					</g>
					<g id="g118">
						<path id="path120" fill-rule="evenodd" class="shp1" d="M173.83 -120.75C174.48 -120.75 174.97 -120.56 175.35 -120.33C175.32 -119.69 175.09 -119.23 174.59 -118.85C174.25 -119.08 173.91 -119.23 173.49 -119.23C172.8 -119.23 172.15 -118.7 171.7 -117.86L171.7 -111.46C171.7 -111.46 171.39 -111.31 170.78 -111.31C170.17 -111.31 169.91 -111.46 169.91 -111.46L169.91 -120.49C169.91 -120.49 170.17 -120.6 170.78 -120.6C171.39 -120.6 171.7 -120.49 171.7 -120.49L171.7 -119.27C172.34 -120.37 173.14 -120.75 173.83 -120.75ZM162.26 -115.42C162.4 -113.33 163.24 -112.64 164.69 -112.64C165.95 -112.64 166.79 -113.17 166.79 -113.17C167.09 -112.87 167.32 -112.41 167.36 -111.88C167.36 -111.88 166.33 -111.15 164.42 -111.15C161.68 -111.15 160.43 -112.83 160.43 -116.03C160.43 -119.35 161.99 -120.79 164.35 -120.79C166.52 -120.79 167.85 -119.57 167.85 -117.25C167.85 -116.11 167.66 -115.42 167.66 -115.42L162.26 -115.42ZM166.06 -117.48C166.06 -118.51 165.64 -119.38 164.35 -119.38C163.21 -119.38 162.4 -118.62 162.26 -116.68L166.02 -116.68C166.06 -116.83 166.06 -117.09 166.06 -117.48ZM158.22 -111.46C158.22 -111.46 157.91 -111.31 157.34 -111.31C156.73 -111.31 156.47 -111.46 156.47 -111.46L156.47 -120.49C156.47 -120.49 156.73 -120.6 157.34 -120.6C157.91 -120.6 158.22 -120.49 158.22 -120.49L158.22 -111.46ZM158.25 -122.39C158.25 -122.39 157.95 -122.28 157.34 -122.28C156.7 -122.28 156.43 -122.39 156.43 -122.39L156.43 -124.07C156.43 -124.07 156.7 -124.18 157.34 -124.18C157.95 -124.18 158.25 -124.07 158.25 -124.07L158.25 -122.39ZM153.38 -120.75C154.03 -120.75 154.52 -120.56 154.91 -120.33C154.87 -119.69 154.6 -119.23 154.14 -118.85C153.8 -119.08 153.46 -119.23 153.04 -119.23C152.35 -119.23 151.67 -118.7 151.21 -117.86L151.21 -111.46C151.21 -111.46 150.95 -111.31 150.34 -111.31C149.73 -111.31 149.46 -111.46 149.46 -111.46L149.46 -120.49C149.46 -120.49 149.73 -120.6 150.34 -120.6C150.95 -120.6 151.21 -120.49 151.21 -120.49L151.21 -119.27C151.9 -120.37 152.66 -120.75 153.38 -120.75ZM146.41 -120.75C147.06 -120.75 147.56 -120.56 147.98 -120.33C147.9 -119.69 147.67 -119.23 147.17 -118.85C146.83 -119.08 146.49 -119.23 146.07 -119.23C145.39 -119.23 144.74 -118.7 144.28 -117.86L144.28 -111.46C144.28 -111.46 143.98 -111.31 143.37 -111.31C142.76 -111.31 142.49 -111.46 142.49 -111.46L142.49 -120.49C142.49 -120.49 142.76 -120.6 143.37 -120.6C143.98 -120.6 144.28 -120.49 144.28 -120.49L144.28 -119.27C144.93 -120.37 145.73 -120.75 146.41 -120.75ZM133.54 -120.14C133.54 -120.14 134.84 -120.79 136.62 -120.79C139.18 -120.79 139.98 -119.65 139.98 -117.36L139.98 -111.46C139.98 -111.46 139.79 -111.31 139.29 -111.31C138.88 -111.31 138.61 -111.46 138.61 -111.46L138.34 -112.56C137.89 -111.65 136.9 -111.15 135.56 -111.15C133.89 -111.15 132.82 -112.11 132.82 -114.09C132.82 -116.03 134 -116.87 136.21 -116.87C137.01 -116.87 137.77 -116.83 138.23 -116.75L138.23 -117.4C138.23 -118.62 137.77 -119.31 136.4 -119.31C135.18 -119.31 134.04 -118.85 134.04 -118.85C134.04 -118.89 133.81 -119.04 133.62 -119.38C133.47 -119.76 133.54 -120.11 133.54 -120.14ZM138.23 -115.57C137.81 -115.61 137.12 -115.65 136.44 -115.65C135.26 -115.65 134.65 -115.19 134.65 -114.09C134.65 -112.94 135.22 -112.49 136.17 -112.49C137.58 -112.49 138.23 -113.67 138.23 -114.93L138.23 -115.57ZM127.34 -124.03C129.62 -124.03 130.8 -122.55 130.8 -120.52C130.8 -119.08 130 -118.28 129.39 -117.86C130.16 -117.48 131.18 -116.64 131.18 -114.89C131.18 -112.75 129.81 -111.31 127.41 -111.31L122.62 -111.31L122.62 -124.03L127.34 -124.03ZM126.96 -118.43C128.37 -118.43 128.97 -119.31 128.97 -120.52C128.97 -121.78 128.4 -122.66 126.92 -122.66L124.41 -122.66L124.41 -118.43L126.96 -118.43ZM127.07 -112.71C128.67 -112.71 129.32 -113.52 129.32 -114.89C129.32 -116.37 128.59 -117.09 127.03 -117.09L124.41 -117.09L124.41 -112.71L127.07 -112.71ZM110.66 -115.42C110.81 -113.33 111.65 -112.64 113.14 -112.64C114.39 -112.64 115.23 -113.17 115.23 -113.17C115.53 -112.87 115.76 -112.41 115.8 -111.88C115.8 -111.88 114.77 -111.15 112.87 -111.15C110.13 -111.15 108.87 -112.83 108.87 -116.03C108.87 -119.35 110.43 -120.79 112.79 -120.79C114.96 -120.79 116.3 -119.57 116.3 -117.25C116.3 -116.11 116.07 -115.42 116.07 -115.42L110.66 -115.42ZM114.5 -117.48C114.5 -118.51 114.09 -119.38 112.79 -119.38C111.65 -119.38 110.81 -118.62 110.66 -116.68L114.47 -116.68C114.47 -116.83 114.5 -117.09 114.5 -117.48ZM106.74 -111.46C106.74 -111.46 106.44 -111.31 105.86 -111.31C105.25 -111.31 104.99 -111.46 104.99 -111.46L104.99 -117.82C104.99 -118.77 104.45 -119.35 103.35 -119.35C102.55 -119.35 101.79 -118.93 101.33 -118.24L101.33 -111.46C101.33 -111.46 101.03 -111.31 100.46 -111.31C99.85 -111.31 99.58 -111.46 99.58 -111.46L99.58 -124.45C99.58 -124.45 99.85 -124.56 100.46 -124.56C101.03 -124.56 101.33 -124.45 101.33 -124.45L101.33 -119.69C101.98 -120.41 102.89 -120.79 104 -120.79C105.79 -120.79 106.74 -119.73 106.74 -118.13L106.74 -111.46ZM97.68 -124.03C97.68 -124.03 97.83 -123.73 97.83 -123.27C97.83 -122.81 97.68 -122.47 97.68 -122.47L94.4 -122.47L94.4 -111.46C94.4 -111.46 94.06 -111.31 93.49 -111.31C92.84 -111.31 92.61 -111.46 92.61 -111.46L92.61 -122.47L89.22 -122.47C89.22 -122.47 89.07 -122.77 89.07 -123.27C89.07 -123.69 89.22 -124.03 89.22 -124.03L97.68 -124.03ZM78.71 -115.42C78.83 -113.33 79.67 -112.64 81.15 -112.64C82.41 -112.64 83.24 -113.17 83.24 -113.17C83.55 -112.87 83.78 -112.41 83.82 -111.88C83.82 -111.88 82.79 -111.15 80.89 -111.15C78.14 -111.15 76.89 -112.83 76.89 -116.03C76.89 -119.35 78.45 -120.79 80.81 -120.79C82.98 -120.79 84.31 -119.57 84.31 -117.25C84.31 -116.11 84.08 -115.42 84.08 -115.42L78.71 -115.42ZM82.52 -117.48C82.52 -118.51 82.1 -119.38 80.81 -119.38C79.67 -119.38 78.83 -118.62 78.71 -116.68L82.48 -116.68C82.48 -116.83 82.52 -117.09 82.52 -117.48ZM69.23 -119.5C69.96 -120.37 70.91 -120.79 72.13 -120.79C73.8 -120.79 74.76 -119.73 74.76 -118.13L74.76 -111.46C74.76 -111.46 74.45 -111.31 73.88 -111.31C73.27 -111.31 73 -111.46 73 -111.46L73 -117.82C73 -118.77 72.55 -119.35 71.44 -119.35C70.72 -119.35 70.03 -118.96 69.58 -118.24L69.58 -111.46C69.58 -111.46 69.27 -111.31 68.7 -111.31C68.09 -111.31 67.83 -111.46 67.83 -111.46L67.83 -117.82C67.83 -118.77 67.37 -119.35 66.26 -119.35C65.54 -119.35 64.85 -118.93 64.4 -118.24L64.4 -111.46C64.4 -111.46 64.09 -111.31 63.52 -111.31C62.91 -111.31 62.65 -111.46 62.65 -111.46L62.65 -120.49C62.65 -120.49 62.91 -120.6 63.52 -120.6C64.09 -120.6 64.4 -120.49 64.4 -120.49L64.4 -119.69C65.01 -120.41 65.92 -120.79 66.95 -120.79C67.94 -120.79 68.74 -120.41 69.23 -119.5ZM56.56 -120.79C58.99 -120.79 60.48 -119.46 60.48 -115.95C60.48 -112.45 58.95 -111.15 56.56 -111.15C54.12 -111.15 52.63 -112.45 52.63 -115.95C52.63 -119.46 54.12 -120.79 56.56 -120.79ZM56.56 -119.42C55.26 -119.42 54.42 -118.7 54.42 -115.95C54.42 -113.25 55.26 -112.49 56.56 -112.49C57.85 -112.49 58.65 -113.25 58.65 -115.95C58.65 -118.7 57.85 -119.42 56.56 -119.42ZM49.17 -119.35C47.45 -119.35 46.77 -118.28 46.77 -115.95C46.77 -113.67 47.53 -112.64 49.21 -112.64C50.2 -112.64 50.88 -112.94 50.88 -112.94C51.18 -112.68 51.38 -112.18 51.38 -111.69C51.38 -111.69 50.61 -111.15 48.86 -111.15C46.27 -111.15 44.98 -112.83 44.98 -115.95C44.98 -119.12 46.27 -120.79 48.86 -120.79C50.54 -120.79 51.22 -120.33 51.22 -120.33C51.22 -119.88 51.03 -119.38 50.69 -119.08C50.69 -119.08 50.08 -119.35 49.17 -119.35ZM42.58 -120.75C43.26 -120.75 43.76 -120.56 44.14 -120.33C44.06 -119.69 43.84 -119.23 43.34 -118.85C43.04 -119.08 42.66 -119.23 42.28 -119.23C41.59 -119.23 40.9 -118.7 40.45 -117.86L40.45 -111.46C40.45 -111.46 40.14 -111.31 39.57 -111.31C38.92 -111.31 38.66 -111.46 38.66 -111.46L38.66 -120.49C38.66 -120.49 38.92 -120.6 39.57 -120.6C40.14 -120.6 40.45 -120.49 40.45 -120.49L40.45 -119.27C41.13 -120.37 41.89 -120.75 42.58 -120.75ZM31 -115.42C31.16 -113.33 31.99 -112.64 33.48 -112.64C34.74 -112.64 35.54 -113.17 35.54 -113.17C35.88 -112.87 36.11 -112.41 36.11 -111.88C36.11 -111.88 35.12 -111.15 33.18 -111.15C30.47 -111.15 29.18 -112.83 29.18 -116.03C29.18 -119.35 30.78 -120.79 33.1 -120.79C35.27 -120.79 36.6 -119.57 36.6 -117.25C36.6 -116.11 36.41 -115.42 36.41 -115.42L31 -115.42ZM34.85 -117.48C34.85 -118.51 34.43 -119.38 33.1 -119.38C31.96 -119.38 31.16 -118.62 31 -116.68L34.77 -116.68C34.81 -116.83 34.85 -117.09 34.85 -117.48ZM23.47 -114.93C23.81 -113.94 23.96 -113.02 23.96 -113.02L24.04 -113.02C24.04 -113.02 24.26 -113.9 24.57 -114.93L26.51 -120.49C26.51 -120.49 26.78 -120.6 27.31 -120.6C27.84 -120.6 28.15 -120.49 28.15 -120.49L25.03 -111.46C25.03 -111.46 24.57 -111.31 23.96 -111.31C23.31 -111.31 22.89 -111.46 22.89 -111.46L19.73 -120.49C19.73 -120.49 20.08 -120.6 20.65 -120.6C21.26 -120.6 21.56 -120.49 21.56 -120.49L23.47 -114.93ZM8.39 -117.67C8.39 -122.2 10.33 -124.22 13.37 -124.22C16.46 -124.22 18.36 -122.24 18.36 -117.67C18.36 -113.1 16.46 -111.15 13.37 -111.15C10.29 -111.15 8.39 -113.1 8.39 -117.67ZM16.46 -117.67C16.46 -121.59 15.28 -122.7 13.37 -122.7C11.51 -122.7 10.29 -121.59 10.29 -117.67C10.29 -113.78 11.51 -112.64 13.37 -112.64C15.28 -112.64 16.46 -113.78 16.46 -117.67Z"/>
					</g>
					<g id="g122">
						<path id="path124" fill-rule="evenodd" class="shp1" d="M60.02 -132.98C63.71 -132.98 67.48 -133.55 70.6 -136.49C70.98 -136.87 71.59 -137.48 72.2 -138.2L68.51 -142.66C67.86 -142.01 67.29 -141.48 66.99 -141.21C64.89 -139.42 62.57 -138.35 60.02 -138.35C53.09 -138.35 49.85 -143.46 49.85 -148.98C49.85 -154.43 53.13 -159.31 60.02 -159.31C62.57 -159.31 64.24 -158.51 66.3 -156.83C66.64 -156.6 67.1 -156.11 67.71 -155.42L71.75 -159.46C71.1 -160.18 70.56 -160.75 70.22 -161.06C66.99 -163.88 63.9 -165.02 60.02 -165.02C49.74 -165.02 44.33 -157.59 44.33 -148.98C44.33 -140.37 49.21 -132.98 60.02 -132.98Z"/>
					</g>
					<g id="g126">
						<path id="path128" fill-rule="evenodd" class="shp1" d="M23.81 -133.06C15.66 -132.71 7.21 -138.12 7.21 -148.94C7.21 -159.8 15.66 -165.13 23.81 -165.13C31.54 -164.71 39.57 -159.38 39.57 -148.94C39.57 -138.51 31.54 -133.06 23.81 -133.06ZM23.31 -159.38C18.4 -159.38 13.03 -155.92 13.03 -148.94C13.03 -142.01 18.4 -138.51 23.31 -138.51C28.41 -138.51 33.82 -142.01 33.82 -148.94C33.82 -155.92 28.41 -159.38 23.31 -159.38Z"/>
					</g>
					<g id="g130">
						<path id="path132" fill-rule="evenodd" class="shp1" d="M108.87 -133.33L108.87 -164.22L124.14 -164.22C129.97 -164.22 133.16 -160.26 133.16 -155.69C133.16 -153.67 132.56 -151.73 130.69 -150.05C134.23 -148.68 135.79 -145.93 135.79 -142.66C135.79 -137.52 132.29 -133.33 125.59 -133.33L108.87 -133.33ZM114.7 -138.77L125.59 -138.77C130.77 -138.77 130.77 -146.66 125.59 -146.66L114.7 -146.66L114.7 -138.77ZM124.14 -158.77L114.7 -158.77L114.7 -152.11L124.14 -152.11C126.04 -152.11 127.26 -153.33 127.26 -155.69C127.26 -157.17 126.04 -158.77 124.14 -158.77Z"/>
					</g>
					<g id="g134">
						<path id="path136" fill-rule="evenodd" class="shp1" d="M75.67 -164.22L88.35 -164.22L88.39 -164.33L88.46 -164.22L101.18 -164.22L101.18 -158.39L91.55 -158.39L91.55 -133.33L85.64 -133.33L85.64 -158.39L75.67 -158.39L75.67 -164.22Z"/>
					</g>
					<g id="g138">
						<path id="path140" fill-rule="evenodd" class="shp2" d="M-63.73 -110.04L-82.74 -110.04L-68.18 -172.35L-64.91 -173.43L-63.18 -180.22L-59.94 -182.03L-60.98 -174.68L-50.15 -178.29L-48.13 -186.81L-44.15 -189.68L-43.98 -184.67L-58.19 -114.5L-63.73 -110.04Z"/>
					</g>
					<g id="g142">
						<path id="path144" fill-rule="evenodd" class="shp0" d="M-64.91 -173.43L-66.55 -166.78L-68.51 -166.17L-69.16 -163.68C-63.04 -165.63 -56.96 -167.58 -50.88 -169.53L-50.23 -172.2L-48.81 -170.64L-44.15 -189.68L-42.01 -187.23L-43.69 -180.39L-29.31 -185.09C-27.21 -185.24 -24.99 -184.9 -22.89 -184.4C-20.18 -183.75 -18.15 -182.72 -16.01 -180.92L0.35 -110.04L-2.93 -110.04L-18.88 -179.13C-21.86 -178.93 -27.25 -180.12 -30.12 -181.8L-47.06 -110.04L-63.73 -110.04L-60.78 -122.08L-64.07 -121.77L-66.98 -110.04L-80.74 -110.04L-78.1 -120.63L-75.2 -120.89L-77.91 -110.04L-93.01 -110.04L-77.15 -169.41L-64.91 -173.43ZM-54.63 -154.65L-53.98 -157.26L-52.49 -155.77L-49.5 -167.85L-52.98 -166.81L-55.43 -156.91L-66.9 -154.08L-64.61 -163.26L-67.66 -162.34L-69.92 -153.35L-71.83 -152.9L-72.37 -150.57L-54.63 -154.65ZM-58.41 -139.51L-57.76 -142.04L-56.19 -140.74L-53.06 -153.43L-56.46 -152.63L-59.14 -141.81L-70.46 -139.94L-67.93 -149.95L-70.95 -149.26L-73.4 -139.44L-75.27 -139.13L-75.85 -136.8L-58.41 -139.51ZM-61.89 -125.67L-60.21 -124.34L-56.77 -138.33L-60.13 -137.8L-63.15 -125.56L-74.32 -124.38L-71.41 -136.07L-74.36 -135.61L-77.22 -124.07L-79.06 -123.88L-79.63 -121.66C-73.9 -122.16 -68.2 -122.69 -62.5 -123.19L-61.89 -125.67ZM-63.5 -167.81L-59.94 -182.03L-57.88 -179.81L-58.99 -175.38L-50.15 -178.28L-51.76 -171.71L-63.5 -167.81Z"/>
					</g>
					<g id="g146">
						<g id="g148">
						</g>
						<g id="g160">
							<g id="Clip-Path: g158" clip-path="url(#cp7)">
								<g id="g158" style="opacity: 0.541">
									<g id="g156">
										<path id="path154" fill-rule="evenodd" class="shp0" d="M-28.36 -179.32L-39.6 -110.04L-41.21 -110.04L-29.89 -179.85C-29.39 -179.66 -28.9 -179.47 -28.36 -179.32Z"/>
									</g>
								</g>
							</g>
						</g>
					</g>
					<g id="g162">
						<g id="g164">
						</g>
						<g id="g176">
							<g id="Clip-Path: g174" clip-path="url(#cp8)">
								<g id="g174" style="opacity: 0.541">
									<g id="g172">
										<path id="path170" fill-rule="evenodd" class="shp0" d="M-26.22 -178.7L-31.8 -110.04L-33.41 -110.04L-27.79 -179.13C-27.25 -178.97 -26.72 -178.82 -26.22 -178.7Z"/>
									</g>
								</g>
							</g>
						</g>
					</g>
					<g id="g178">
						<g id="g180">
						</g>
						<g id="g192">
							<g id="Clip-Path: g190" clip-path="url(#cp9)">
								<g id="g190" style="opacity: 0.541">
									<g id="g188">
										<path id="path186" fill-rule="evenodd" class="shp0" d="M-23.92 -178.21L-23.96 -110.04L-25.57 -110.04L-25.53 -178.55C-25 -178.4 -24.46 -178.32 -23.92 -178.21Z"/>
									</g>
								</g>
							</g>
						</g>
					</g>
					<g id="g194">
						<g id="g196">
						</g>
						<g id="g208">
							<g id="Clip-Path: g206" clip-path="url(#cp10)">
								<g id="g206" style="opacity: 0.541">
									<g id="g204">
										<path id="path202" fill-rule="evenodd" class="shp0" d="M-21.55 -177.82L-16.13 -110.04L-17.73 -110.04L-23.2 -178.09C-22.63 -177.98 -22.09 -177.9 -21.55 -177.82Z"/>
									</g>
								</g>
							</g>
						</g>
					</g>
					<g id="g210">
						<g id="g212">
						</g>
						<g id="g224">
							<g id="Clip-Path: g222" clip-path="url(#cp11)">
								<g id="g222" style="opacity: 0.541">
									<g id="g220">
										<path id="path218" fill-rule="evenodd" class="shp0" d="M-19.15 -177.64L-8.21 -110.04L-9.82 -110.04L-20.79 -177.75C-20.22 -177.71 -19.68 -177.67 -19.15 -177.64Z"/>
									</g>
								</g>
							</g>
						</g>
					</g>
					<g id="g226">
						<path id="path228" fill-rule="evenodd" class="shp2" d="M43.87 260.21L24.86 260.21L39.41 197.9L42.68 196.82L44.41 190.03L47.65 188.22L46.61 195.57L57.44 191.96L59.46 183.44L63.44 180.57L63.62 185.58L49.4 255.75L43.87 260.21Z"/>
					</g>
					<g id="g230">
						<path id="path232" fill-rule="evenodd" class="shp0" d="M29.35 15.49L27.71 22.14L25.76 22.75L25.11 25.24C31.22 23.29 37.3 21.34 43.38 19.39L44.03 16.71L45.45 18.28L50.11 -0.76L52.25 1.68L50.57 8.53L64.95 3.82C67.05 3.67 69.27 4.02 71.37 4.52C74.08 5.16 76.11 6.19 78.25 7.99L94.61 78.88L91.33 78.88L75.38 9.79C72.4 9.98 67.01 8.8 64.14 7.11L47.21 78.88L30.53 78.88L33.48 66.84L30.19 67.14L27.29 78.88L13.52 78.88L16.16 68.29L19.07 68.02L16.35 78.88L1.25 78.88L17.11 19.5L29.35 15.49ZM39.63 34.26L40.29 31.66L41.77 33.15L44.76 21.07L41.28 22.1L38.83 32L27.36 34.84L29.65 25.66L26.6 26.58L24.34 35.56L22.43 36.02L21.89 38.35L39.63 34.26ZM35.85 49.4L36.5 46.88L38.07 48.18L41.2 35.48L37.8 36.29L35.12 47.11L23.81 48.98L26.33 38.96L23.31 39.65L20.86 49.48L18.99 49.78L18.41 52.11L35.85 49.4ZM32.37 63.24L34.05 64.58L37.49 50.59L34.13 51.12L31.11 63.36L19.94 64.54L22.85 52.84L19.91 53.3L17.04 64.85L15.2 65.04L14.63 67.25C20.37 66.76 26.06 66.22 31.76 65.73L32.37 63.24ZM30.76 21.11L34.32 6.88L36.38 9.1L35.27 13.54L44.11 10.63L42.5 17.21L30.76 21.11Z"/>
					</g>
					<g id="g234">
						<g id="g236">
						</g>
						<g id="g248">
							<g id="Clip-Path: g246" clip-path="url(#cp12)">
								<g id="g246" style="opacity: 0.541">
									<g id="g244">
										<path id="path242" fill-rule="evenodd" class="shp0" d="M65.9 9.6L54.66 78.88L53.05 78.88L64.37 9.06C64.87 9.25 65.37 9.45 65.9 9.6Z"/>
									</g>
								</g>
							</g>
						</g>
					</g>
					<g id="g250">
						<g id="g252">
						</g>
						<g id="g264">
							<g id="Clip-Path: g262" clip-path="url(#cp13)">
								<g id="g262" style="opacity: 0.541">
									<g id="g260">
										<path id="path258" fill-rule="evenodd" class="shp0" d="M68.04 10.21L62.46 78.88L60.85 78.88L66.47 9.79C67.01 9.94 67.54 10.1 68.04 10.21Z"/>
									</g>
								</g>
							</g>
						</g>
					</g>
					<g id="g266">
						<g id="g268">
						</g>
						<g id="g280">
							<g id="Clip-Path: g278" clip-path="url(#cp14)">
								<g id="g278" style="opacity: 0.541">
									<g id="g276">
										<path id="path274" fill-rule="evenodd" class="shp0" d="M70.34 10.71L70.3 78.88L68.69 78.88L68.73 10.36C69.27 10.52 69.8 10.59 70.34 10.71Z"/>
									</g>
								</g>
							</g>
						</g>
					</g>
					<g id="g282">
						<g id="g284">
						</g>
						<g id="g296">
							<g id="Clip-Path: g294" clip-path="url(#cp15)">
								<g id="g294" style="opacity: 0.541">
									<g id="g292">
										<path id="path290" fill-rule="evenodd" class="shp0" d="M72.71 11.09L78.14 78.88L76.53 78.88L71.06 10.82C71.64 10.94 72.17 11.01 72.71 11.09Z"/>
									</g>
								</g>
							</g>
						</g>
					</g>
					<g id="g298">
						<g id="g300">
						</g>
						<g id="g312">
							<g id="Clip-Path: g310" clip-path="url(#cp16)">
								<g id="g310" style="opacity: 0.541">
									<g id="g308">
										<path id="path306" fill-rule="evenodd" class="shp0" d="M75.11 11.28L86.05 78.88L84.44 78.88L73.47 11.17C74.04 11.2 74.58 11.24 75.11 11.28Z"/>
									</g>
								</g>
							</g>
						</g>
					</g>
				</g>
			</g>
		</g>
	</g>
</svg>
